<svg xmlns="http://www.w3.org/2000/svg" width="400" height="200" viewBox="0 0 400 200"><style>
      @import url('https://fonts.googleapis.com/css2?family=JetBrains+Mono:wght@400;500;600&display=swap');
      * {
        font-family: 'JetBrains Mono', 'SF Mono', 'Monaco', 'Inconsolata', 'Fira Mono', monospace;
      }
      .title {
        font-weight: 600;
        letter-spacing: -0.5px;
      }
      .stat-value {
        font-weight: 600;
      }
      .stat-label {
        font-weight: 400;
        opacity: 0.7;
      }
    </style><rect x="0" y="0" rx="8" ry="8" width="100%" height="100%" fill="#0d1117" stroke="#30363d" stroke-width="1" stroke-opacity="1"></rect><text class="title" x="20" y="28" fill="#58a6ff" font-size="16px">EYoung21's Code Stats</text><text class="subtitle" x="380" y="28" text-anchor="end" fill="#c9d1d9" font-size="10px" opacity="0.5">Lines of Code Based</text><g transform="translate(0, 40)"><!-- Total Lines --><g transform="translate(20, 8)"><svg viewBox="0 0 16 16" width="16" height="16" fill="#58a6ff"><path d="M4.72 3.22a.75.75 0 011.06 1.06L2.06 8l3.72 3.72a.75.75 0 11-1.06 1.06L.47 8.53a.75.75 0 010-1.06l4.25-4.25zm6.56 0a.75.75 0 10-1.06 1.06L13.94 8l-3.72 3.72a.75.75 0 101.06 1.06l4.25-4.25a.75.75 0 000-1.06l-4.25-4.25z"/></svg></g><text x="42" y="20" fill="#c9d1d9" font-size="11px" opacity="0.8">Total Lines Changed</text><text x="180" y="20" text-anchor="end" fill="#58a6ff" font-size="12px" font-weight="600">125.4K</text><!-- Lines Added --><g transform="translate(210, 8)"><svg viewBox="0 0 16 16" width="16" height="16" fill="#3fb950"><path d="M7.75 2a.75.75 0 01.75.75V7h4.25a.75.75 0 010 1.5H8.5v4.25a.75.75 0 01-1.5 0V8.5H2.75a.75.75 0 010-1.5H7V2.75A.75.75 0 017.75 2z"/></svg></g><text x="232" y="20" fill="#c9d1d9" font-size="11px" opacity="0.8">Lines Added</text><text x="380" y="20" text-anchor="end" fill="#3fb950" font-size="12px" font-weight="600">+98.2K</text><!-- Lines Deleted --><g transform="translate(20, 30)"><svg viewBox="0 0 16 16" width="16" height="16" fill="#f85149"><path d="M2 7.75A.75.75 0 012.75 7h10a.75.75 0 010 1.5h-10A.75.75 0 012 7.75z"/></svg></g><text x="42" y="42" fill="#c9d1d9" font-size="11px" opacity="0.8">Lines Deleted</text><text x="180" y="42" text-anchor="end" fill="#f85149" font-size="12px" font-weight="600">-27.2K</text><!-- Total Commits --><g transform="translate(210, 30)"><svg viewBox="0 0 16 16" width="16" height="16" fill="#58a6ff"><path d="M11.93 8.5a4.002 4.002 0 01-7.86 0H.75a.75.75 0 010-1.5h3.32a4.002 4.002 0 017.86 0h3.32a.75.75 0 010 1.5h-3.32zM8 10.5a2.5 2.5 0 100-5 2.5 2.5 0 000 5z"/></svg></g><text x="232" y="42" fill="#c9d1d9" font-size="11px" opacity="0.8">Total Commits</text><text x="380" y="42" text-anchor="end" fill="#58a6ff" font-size="12px" font-weight="600">847</text><!-- Contributing Days --><g transform="translate(20, 52)"><svg viewBox="0 0 16 16" width="16" height="16" fill="#c9d1d9"><path d="M4.75 0a.75.75 0 01.75.75V2h5V.75a.75.75 0 011.5 0V2h1.25c.966 0 1.75.784 1.75 1.75v10.5A1.75 1.75 0 0113.25 16H2.75A1.75 1.75 0 011 14.25V3.75C1 2.784 1.784 2 2.75 2H4V.75A.75.75 0 014.75 0z"/></svg></g><text x="42" y="64" fill="#c9d1d9" font-size="11px" opacity="0.8">Contributing Days</text><text x="180" y="64" text-anchor="end" fill="#c9d1d9" font-size="12px" font-weight="600">243</text><!-- Avg Lines/Commit --><g transform="translate(210, 52)"><svg viewBox="0 0 16 16" width="16" height="16" fill="#f0883e"><path d="M7.998 14.5c2.832 0 5-1.98 5-4.5 0-1.463-.68-2.19-1.879-3.383l-.036-.037c-1.013-1.008-2.3-2.29-2.834-4.434-.322.256-.63.579-.864.953-.432.696-.621 1.58-.046 2.73.473.947.67 2.284-.278 3.232-.61.61-1.545.84-2.403.633a2.79 2.79 0 01-1.436-.874A3.198 3.198 0 003 10c0 2.53 2.164 4.5 4.998 4.5z"/></svg></g><text x="232" y="64" fill="#c9d1d9" font-size="11px" opacity="0.8">Avg Lines/Commit</text><text x="380" y="64" text-anchor="end" fill="#f0883e" font-size="12px" font-weight="600">148</text><text x="200" y="110" text-anchor="middle" fill="#c9d1d9" font-size="9px" opacity="0.4">15 commits filtered (data files excluded)</text></g></svg>

