<svg xmlns="http://www.w3.org/2000/svg" width="400" height="200" viewBox="0 0 400 200"><style>
      @import url('https://fonts.googleapis.com/css2?family=JetBrains+Mono:wght@400;500;600&amp;display=swap');
      * {
        font-family: 'JetBrains Mono', 'SF Mono', 'Monaco', 'Inconsolata', 'Fira Mono', monospace;
      }
      .title {
        font-weight: 600;
        letter-spacing: -0.5px;
      }
      .subtitle {
        font-weight: 400;
        opacity: 0.8;
      }
      .stat-value {
        font-weight: 600;
      }
      .stat-label {
        font-weight: 400;
        opacity: 0.7;
      }
      .day-label, .month-label {
        font-size: 9px;
        fill: #f8f8f2;
        opacity: 0.6;
      }
    </style><rect x="0" y="0" rx="8" ry="8" width="100%" height="100%" fill="#282a36" stroke="#44475a" stroke-width="1" stroke-opacity="1"></rect><text class="title" x="20" y="28" fill="#ff79c6" font-size="16px">EYoung21's Code Stats</text><g transform="translate(0, 40)"><g transform="translate(20, 8)" fill="#bd93f9">
<svg viewBox="0 0 16 16" width="16" height="16" fill="currentColor">
  <path d="M4.72 3.22a.75.75 0 011.06 1.06L2.06 8l3.72 3.72a.75.75 0 11-1.06 1.06L.47 8.53a.75.75 0 010-1.06l4.25-4.25zm6.56 0a.75.75 0 10-1.06 1.06L13.94 8l-3.72 3.72a.75.75 0 101.06 1.06l4.25-4.25a.75.75 0 000-1.06l-4.25-4.25z"></path>
</svg></g><text x="42" y="20" fill="#f8f8f2" font-size="11px" opacity="0.8">Total Lines Changed</text><text x="190" y="20" text-anchor="end" fill="#bd93f9" font-size="12px" font-weight="600">860.5K</text><g transform="translate(210, 8)" fill="#3fb950">
<svg viewBox="0 0 16 16" width="16" height="16" fill="currentColor">
  <path d="M7.75 2a.75.75 0 01.75.75V7h4.25a.75.75 0 010 1.5H8.5v4.25a.75.75 0 01-1.5 0V8.5H2.75a.75.75 0 010-1.5H7V2.75A.75.75 0 017.75 2z"></path>
</svg></g><text x="232" y="20" fill="#f8f8f2" font-size="11px" opacity="0.8">Lines Added</text><text x="380" y="20" text-anchor="end" fill="#3fb950" font-size="12px" font-weight="600">+724.3K</text><g transform="translate(20, 30)" fill="#f85149">
<svg viewBox="0 0 16 16" width="16" height="16" fill="currentColor">
  <path d="M2 7.75A.75.75 0 012.75 7h10a.75.75 0 010 1.5h-10A.75.75 0 012 7.75z"></path>
</svg></g><text x="42" y="42" fill="#f8f8f2" font-size="11px" opacity="0.8">Lines Deleted</text><text x="190" y="42" text-anchor="end" fill="#f85149" font-size="12px" font-weight="600">-136.3K</text><g transform="translate(210, 30)" fill="#ff79c6">
<svg viewBox="0 0 16 16" width="16" height="16" fill="currentColor">
  <path d="M11.93 8.5a4.002 4.002 0 01-7.86 0H.75a.75.75 0 010-1.5h3.32a4.002 4.002 0 017.86 0h3.32a.75.75 0 010 1.5h-3.32zM8 10.5a2.5 2.5 0 100-5 2.5 2.5 0 000 5z"></path>
</svg></g><text x="232" y="42" fill="#f8f8f2" font-size="11px" opacity="0.8">Total Commits</text><text x="380" y="42" text-anchor="end" fill="#ff79c6" font-size="12px" font-weight="600">1.9K</text><g transform="translate(20, 52)" fill="#f8f8f2">
<svg viewBox="0 0 16 16" width="16" height="16" fill="currentColor">
  <path d="M4.75 0a.75.75 0 01.75.75V2h5V.75a.75.75 0 011.5 0V2h1.25c.966 0 1.75.784 1.75 1.75v10.5A1.75 1.75 0 0113.25 16H2.75A1.75 1.75 0 011 14.25V3.75C1 2.784 1.784 2 2.75 2H4V.75A.75.75 0 014.75 0zm0 3.5h-.5a.25.25 0 00-.25.25V6h8V3.75a.25.25 0 00-.25-.25h-.5V4a.75.75 0 01-1.5 0v-.5H6V4a.75.75 0 01-1.5 0v-.5h-.25zm5.25 5v2.5H7.5v-2.5h2.5zm-4 0v2.5H3.5v-2.5H6zm0 4H3.5v1.25c0 .138.112.25.25.25H6v-1.5zm1.5 0v1.5h2.5v-1.5H7.5zm4 0v1.5h1.25a.25.25 0 00.25-.25V12.5h-1.5zm0-1.5h1.5v-2.5h-1.5v2.5zm0-4h1.5V3.75a.25.25 0 00-.25-.25h-1.25V3.5a.75.75 0 01-1.5 0v-.5H6v.5a.75.75 0 01-1.5 0v-.5h-.5a.25.25 0 00-.25.25V7h8V3.75a.25.25 0 00-.25-.25h-1.25V4a.75.75 0 01-1.5 0v-.5h-2.5V4a.75.75 0 01-1.5 0v-.5h-.5V7h8z"></path>
</svg></g><text x="42" y="64" fill="#f8f8f2" font-size="11px" opacity="0.8">Contributing Days</text><text x="190" y="64" text-anchor="end" fill="#f8f8f2" font-size="12px" font-weight="600">213</text><g transform="translate(210, 52)" fill="#f0883e">
<svg viewBox="0 0 16 16" width="16" height="16" fill="currentColor">
  <path d="M7.998 14.5c2.832 0 5-1.98 5-4.5 0-1.463-.68-2.19-1.879-3.383l-.036-.037c-1.013-1.008-2.3-2.29-2.834-4.434-.322.256-.63.579-.864.953-.432.696-.621 1.58-.046 2.73.473.947.67 2.284-.278 3.232-.61.61-1.545.84-2.403.633a2.79 2.79 0 01-1.436-.874A3.198 3.198 0 003 10c0 2.53 2.164 4.5 4.998 4.5zM9.533.753C9.496.34 9.16.009 8.77.146 7.035.75 4.34 3.187 5.997 6.5c.344.689.285 1.218.003 1.5-.419.419-1.796.167-2.31-.197-.23-.163-.552-.134-.72.098l-.04.054c-.36.486-.527 1.048-.527 1.545 0 3.07 2.527 5.5 5.597 5.5 3.07 0 5.5-2.424 5.5-5.5 0-1.93-.862-2.983-2.043-4.158l-.037-.037c-1.195-1.19-2.564-2.553-1.887-4.552z"></path>
</svg></g><text x="232" y="64" fill="#f8f8f2" font-size="11px" opacity="0.8">Avg Lines/Commit</text><text x="380" y="64" text-anchor="end" fill="#f0883e" font-size="12px" font-weight="600">464</text><text x="200" y="150" text-anchor="middle" fill="#f8f8f2" font-size="9px" opacity="0.4">694 commits filtered (data files excluded)</text></g><text class="subtitle" x="380" y="28" text-anchor="end" fill="#f8f8f2" font-size="10px" opacity="0.5">Lines of Code Based</text></svg>